<?xml version="1.0" encoding="iso-8859-1"?>
<svg height="800px" width="800px" version="1.1" id="Layer_1" xmlns="http://www.w3.org/2000/svg" xmlns:xlink="http://www.w3.org/1999/xlink" 
	 viewBox="0 0 511.407 511.407" xml:space="preserve">
<g>
	<path style="fill:#FFE155;" d="M361.487,226.398c5.416,0,9.823,4.407,9.823,9.823c0,5.416-4.407,9.823-9.823,9.823
		c-5.416,0-9.823-4.407-9.823-9.823C351.664,230.805,356.07,226.398,361.487,226.398z"/>
	<path style="fill:#FFE155;" d="M321.09,350.76c5.416,0,9.823,4.407,9.823,9.835c0,5.416-4.407,9.823-9.823,9.823
		s-9.823-4.407-9.823-9.823C311.267,355.167,315.674,350.76,321.09,350.76z"/>
</g>

<g>
	<path style="fill:#FFE155;" d="M255.655,236.221c19.432,0,35.182,15.75,35.182,35.17c0,19.432-15.75,35.17-35.182,35.17
		c-19.42,0-35.17-15.738-35.17-35.17C220.484,251.972,236.234,236.221,255.655,236.221z"/>
	<path style="fill:#FFE155;" d="M255.667,149.537c5.416,0,9.823,4.407,9.823,9.823c0,5.428-4.407,9.835-9.823,9.835
		c-5.428,0-9.835-4.407-9.835-9.835C245.832,153.943,250.238,149.537,255.667,149.537z"/>
</g>
<path style="fill:#FFE155;" d="M190.326,350.76c5.416,0,9.823,4.407,9.823,9.835c0,5.416-4.407,9.823-9.823,9.823
	s-9.823-4.407-9.823-9.823C180.503,355.167,184.91,350.76,190.326,350.76z"/>
<path style="fill:#FFE155;" d="M149.918,226.398c5.416,0,9.823,4.407,9.823,9.823c0,5.416-4.407,9.823-9.823,9.823
	s-9.823-4.407-9.823-9.823C140.095,230.805,144.501,226.398,149.918,226.398z"/>
</svg>